<?xml version="1.0" encoding="UTF-8" standalone="no"?>
<svg
   version="1.1"
   width="293"
   height="127"
   viewBox="-5 -5 293 127"
   xml:space="preserve"
   id="svg61"
   sodipodi:docname="logo.svg"
   inkscape:version="1.1.1 (3bf5ae0d25, 2021-09-20, custom)"
   xmlns:inkscape="http://www.inkscape.org/namespaces/inkscape"
   xmlns:sodipodi="http://sodipodi.sourceforge.net/DTD/sodipodi-0.dtd"
   xmlns="http://www.w3.org/2000/svg"
   xmlns:svg="http://www.w3.org/2000/svg"><sodipodi:namedview
   id="namedview63"
   pagecolor="#ffffff"
   bordercolor="#666666"
   borderopacity="1.0"
   inkscape:pageshadow="2"
   inkscape:pageopacity="0.0"
   inkscape:pagecheckerboard="0"
   showgrid="false"
   inkscape:zoom="5.0212014"
   inkscape:cx="141.5"
   inkscape:cy="58.452146"
   inkscape:window-width="1920"
   inkscape:window-height="998"
   inkscape:window-x="0"
   inkscape:window-y="45"
   inkscape:window-maximized="1"
   inkscape:current-layer="svg61" />
<desc
   id="desc2">Created with Fabric.js 3.6.3</desc>
<defs
   id="defs4">
</defs>
<g
   transform="matrix(3.78 0 0 3.78 55.21 38.48)"
   id="path58334">
<path
   style="stroke: none; stroke-width: 0.264583; stroke-dasharray: none; stroke-linecap: butt; stroke-dashoffset: 0; stroke-linejoin: miter; stroke-miterlimit: 4; fill: rgb(0,0,0); fill-rule: nonzero; opacity: 1;"
   transform=" translate(-16.82, -90.12)"
   d="m 19.504148 93.846138 h -1.34875 v -0.80615 q -0.335896 0.470254 -0.795815 0.702797 q -0.454751 0.227376 -0.919837 0.227376 q -0.945676 0 -1.622635 -0.759641 q -0.671791 -0.764809 -0.671791 -2.129062 q 0 -1.39526 0.656288 -2.118727 q 0.656289 -0.728636 1.658808 -0.728636 q 0.919838 0 1.591629 0.764809 v -2.728507 h 1.452103 z m -3.87572 -2.862865 q 0 0.878496 0.242879 1.271236 q 0.351398 0.568439 0.981849 0.568439 q 0.50126 0 0.852658 -0.423745 q 0.351399 -0.428914 0.351399 -1.276404 q 0 -0.945676 -0.341063 -1.359086 q -0.341064 -0.418578 -0.873329 -0.418578 q -0.516763 0 -0.868162 0.41341 q -0.346231 0.408243 -0.346231 1.224728 z"
   stroke-linecap="round"
   id="path6" />
</g>
<g
   transform="matrix(3.78 0 0 3.78 79.04 42.19)"
   id="path58336">
<path
   style="stroke: none; stroke-width: 0.264583; stroke-dasharray: none; stroke-linecap: butt; stroke-dashoffset: 0; stroke-linejoin: miter; stroke-miterlimit: 4; fill: rgb(0,0,0); fill-rule: nonzero; opacity: 1;"
   transform=" translate(-23.13, -91.1)"
   d="m 22.020783 90.032429 l -1.317745 -0.23771 q 0.222208 -0.795815 0.764809 -1.178219 q 0.542601 -0.382405 1.612299 -0.382405 q 0.971514 0 1.446936 0.232544 q 0.475421 0.227375 0.666624 0.583941 q 0.196369 0.351399 0.196369 1.297075 l -0.0155 1.694981 q 0 0.723468 0.06718 1.069699 q 0.07235 0.341063 0.263549 0.733803 H 24.2687 q -0.05684 -0.144694 -0.139525 -0.428913 q -0.03617 -0.129191 -0.05168 -0.170532 q -0.372069 0.361734 -0.795814 0.542601 q -0.423746 0.180867 -0.904335 0.180867 q -0.847491 0 -1.338415 -0.459919 q -0.485757 -0.459919 -0.485757 -1.162716 q 0 -0.465086 0.222208 -0.82682 q 0.222208 -0.366902 0.620115 -0.558104 q 0.403075 -0.19637 1.157548 -0.341063 q 1.018023 -0.191202 1.410762 -0.356566 v -0.144694 q 0 -0.418578 -0.206705 -0.594277 q -0.206705 -0.180867 -0.780311 -0.180867 q -0.387572 0 -0.604613 0.155029 q -0.21704 0.149861 -0.351398 0.532265 z m 1.943027 1.178219 q -0.279051 0.09302 -0.883664 0.222208 q -0.604612 0.129191 -0.790647 0.253214 q -0.284219 0.201537 -0.284219 0.511595 q 0 0.30489 0.227375 0.527098 q 0.227376 0.222208 0.578775 0.222208 q 0.392739 0 0.749306 -0.258381 q 0.263549 -0.19637 0.346231 -0.48059 q 0.05684 -0.186034 0.05684 -0.707965 z"
   stroke-linecap="round"
   id="path9" />
</g>
<g
   transform="matrix(3.78 0 0 3.78 101.06 46.4)"
   id="path58338">
<path
   style="stroke: none; stroke-width: 0.264583; stroke-dasharray: none; stroke-linecap: butt; stroke-dashoffset: 0; stroke-linejoin: miter; stroke-miterlimit: 4; fill: rgb(0,0,0); fill-rule: nonzero; opacity: 1;"
   transform=" translate(-28.96, -92.22)"
   d="m 26.134214 88.358118 h 1.54512 l 1.312577 3.896391 l 1.281572 -3.896391 h 1.503779 l -1.93786 5.281315 l -0.346231 0.956011 q -0.191202 0.480589 -0.366902 0.733803 q -0.170531 0.253214 -0.397907 0.408242 q -0.222208 0.160197 -0.552936 0.248046 q -0.32556 0.08785 -0.738971 0.08785 q -0.418577 0 -0.821652 -0.08785 l -0.129191 -1.136877 q 0.341064 0.06718 0.614948 0.06718 q 0.506427 0 0.749306 -0.299723 q 0.242878 -0.294554 0.372069 -0.754473 z"
   stroke-linecap="round"
   id="path12" />
</g>
<g
   transform="matrix(3.78 0 0 3.78 124.14 38.48)"
   id="path58340">
<path
   style="stroke: none; stroke-width: 0.264583; stroke-dasharray: none; stroke-linecap: butt; stroke-dashoffset: 0; stroke-linejoin: miter; stroke-miterlimit: 4; fill: rgb(0,0,0); fill-rule: nonzero; opacity: 1;"
   transform=" translate(-35.06, -90.12)"
   d="m 37.740704 93.846138 h -1.348751 v -0.80615 q -0.335896 0.470254 -0.795815 0.702797 q -0.454751 0.227376 -0.919837 0.227376 q -0.945676 0 -1.622635 -0.759641 q -0.671791 -0.764809 -0.671791 -2.129062 q 0 -1.39526 0.656288 -2.118727 q 0.656289 -0.728636 1.658808 -0.728636 q 0.919838 0 1.591629 0.764809 v -2.728507 h 1.452104 z m -3.875721 -2.862865 q 0 0.878496 0.242879 1.271236 q 0.351399 0.568439 0.981849 0.568439 q 0.50126 0 0.852658 -0.423745 q 0.351399 -0.428914 0.351399 -1.276404 q 0 -0.945676 -0.341063 -1.359086 q -0.341064 -0.418578 -0.873329 -0.418578 q -0.516763 0 -0.868162 0.41341 q -0.346231 0.408243 -0.346231 1.224728 z"
   stroke-linecap="round"
   id="path15" />
</g>
<g
   transform="matrix(3.78 0 0 3.78 146.16 41.96)"
   id="path58342">
<path
   style="stroke: none; stroke-width: 0.264583; stroke-dasharray: none; stroke-linecap: butt; stroke-dashoffset: 0; stroke-linejoin: miter; stroke-miterlimit: 4; fill: rgb(0,0,0); fill-rule: nonzero; opacity: 1;"
   transform=" translate(-40.89, -91.04)"
   d="m 40.562227 93.846138 h -1.452103 v -5.48802 h 1.348751 v 0.780312 q 0.346231 -0.552936 0.620115 -0.728635 q 0.279052 -0.1757 0.630451 -0.1757 q 0.496092 0 0.95601 0.273885 l -0.449583 1.266068 q -0.366902 -0.237711 -0.682127 -0.237711 q -0.30489 0 -0.516762 0.170532 q -0.211873 0.165364 -0.335896 0.604612 q -0.118856 0.439249 -0.118856 1.839675 z"
   stroke-linecap="round"
   id="path18" />
</g>
<g
   transform="matrix(3.78 0 0 3.78 163.34 42.19)"
   id="path58344">
<path
   style="stroke: none; stroke-width: 0.264583; stroke-dasharray: none; stroke-linecap: butt; stroke-dashoffset: 0; stroke-linejoin: miter; stroke-miterlimit: 4; fill: rgb(0,0,0); fill-rule: nonzero; opacity: 1;"
   transform=" translate(-45.44, -91.1)"
   d="m 46.468825 92.09948 l 1.446936 0.242879 q -0.279052 0.795814 -0.883664 1.214392 q -0.599445 0.41341 -1.50378 0.41341 q -1.431432 0 -2.118727 -0.93534 q -0.542601 -0.749306 -0.542601 -1.891352 q 0 -1.364253 0.713133 -2.13423 q 0.713132 -0.775144 1.803502 -0.775144 q 1.224727 0 1.932692 0.811318 q 0.707965 0.80615 0.676959 2.475293 h -3.638009 q 0.0155 0.645953 0.351398 1.007687 q 0.335896 0.356566 0.837156 0.356566 q 0.341063 0 0.573607 -0.186034 q 0.232543 -0.186035 0.351398 -0.599445 z m 0.08268 -1.467606 q -0.0155 -0.63045 -0.32556 -0.956011 q -0.310058 -0.330728 -0.754474 -0.330728 q -0.475421 0 -0.785479 0.346231 q -0.310058 0.346231 -0.30489 0.940508 z"
   stroke-linecap="round"
   id="path21" />
</g>
<g
   transform="matrix(3.78 0 0 3.78 185.78 42.19)"
   id="path58346">
<path
   style="stroke: none; stroke-width: 0.264583; stroke-dasharray: none; stroke-linecap: butt; stroke-dashoffset: 0; stroke-linejoin: miter; stroke-miterlimit: 4; fill: rgb(0,0,0); fill-rule: nonzero; opacity: 1;"
   transform=" translate(-51.37, -91.1)"
   d="m 50.261862 90.032429 l -1.317745 -0.23771 q 0.222208 -0.795815 0.764809 -1.178219 q 0.5426 -0.382405 1.612299 -0.382405 q 0.971514 0 1.446936 0.232544 q 0.475421 0.227375 0.666623 0.583941 q 0.19637 0.351399 0.19637 1.297075 l -0.0155 1.694981 q 0 0.723468 0.06718 1.069699 q 0.07235 0.341063 0.263549 0.733803 h -1.436601 q -0.05684 -0.144694 -0.139526 -0.428913 q -0.03617 -0.129191 -0.05168 -0.170532 q -0.372069 0.361734 -0.795814 0.542601 q -0.423746 0.180867 -0.904335 0.180867 q -0.847491 0 -1.338415 -0.459919 q -0.485757 -0.459919 -0.485757 -1.162716 q 0 -0.465086 0.222208 -0.82682 q 0.222208 -0.366902 0.620115 -0.558104 q 0.403075 -0.19637 1.157548 -0.341063 q 1.018023 -0.191202 1.410762 -0.356566 v -0.144694 q 0 -0.418578 -0.206705 -0.594277 q -0.206705 -0.180867 -0.780311 -0.180867 q -0.387572 0 -0.604613 0.155029 q -0.21704 0.149861 -0.351398 0.532265 z m 1.943027 1.178219 q -0.279052 0.09302 -0.883664 0.222208 q -0.604612 0.129191 -0.790647 0.253214 q -0.284219 0.201537 -0.284219 0.511595 q 0 0.30489 0.227375 0.527098 q 0.227376 0.222208 0.578775 0.222208 q 0.392739 0 0.749305 -0.258381 q 0.263549 -0.19637 0.346231 -0.48059 q 0.05684 -0.186034 0.05684 -0.707965 z"
   stroke-linecap="round"
   id="path24" />
</g>
<g
   transform="matrix(3.78 0 0 3.78 214.57 41.96)"
   id="path58348">
<path
   style="stroke: none; stroke-width: 0.264583; stroke-dasharray: none; stroke-linecap: butt; stroke-dashoffset: 0; stroke-linejoin: miter; stroke-miterlimit: 4; fill: rgb(0,0,0); fill-rule: nonzero; opacity: 1;"
   transform=" translate(-58.99, -91.04)"
   d="m 54.954069 88.358118 h 1.338415 v 0.749306 q 0.7183 -0.873329 1.710485 -0.873329 q 0.527098 0 0.91467 0.217041 q 0.387572 0.21704 0.635618 0.656288 q 0.361734 -0.439248 0.780311 -0.656288 q 0.418578 -0.217041 0.894 -0.217041 q 0.604612 0 1.02319 0.248046 q 0.418578 0.242879 0.625283 0.718301 q 0.149861 0.351398 0.149861 1.136877 v 3.508819 h -1.452103 v -3.136749 q 0 -0.816485 -0.149861 -1.054196 q -0.201538 -0.310058 -0.620116 -0.310058 q -0.304889 0 -0.573606 0.186035 q -0.268717 0.186034 -0.387572 0.547768 q -0.118856 0.356566 -0.118856 1.13171 v 2.63549 h -1.452103 v -3.007559 q 0 -0.800982 -0.07751 -1.033525 q -0.07751 -0.232543 -0.242878 -0.346231 q -0.160197 -0.113688 -0.439249 -0.113688 q -0.335896 0 -0.604612 0.180867 q -0.268717 0.180867 -0.387572 0.52193 q -0.113688 0.341064 -0.113688 1.131711 v 2.666495 h -1.452103 z"
   stroke-linecap="round"
   id="path27" />
</g>
<g
   transform="matrix(3.78 0 0 3.78 59.42 80.96)"
   id="path58351">
<path
   style="stroke: none; stroke-width: 0.264583; stroke-dasharray: none; stroke-linecap: butt; stroke-dashoffset: 0; stroke-linejoin: miter; stroke-miterlimit: 4; fill: rgb(0,0,0); fill-rule: nonzero; opacity: 1;"
   transform=" translate(-17.94, -101.36)"
   d="M 21.695331 104.06588 H 20.84784 v -3.03856 q 0 -0.8785 -0.273884 -1.271241 q -0.268717 -0.39274 -0.909503 -0.39274 q -0.5426 0 -0.925005 0.496093 q -0.377237 0.496088 -0.377237 1.188558 v 3.01789 h -0.84749 v -3.14192 q 0 -1.560621 -1.204057 -1.560621 q -0.558104 0 -0.919838 0.470254 q -0.361734 0.465087 -0.361734 1.214397 v 3.01789 h -0.847491 v -5.29165 h 0.847491 v 0.837156 h 0.02067 q 0.563271 -0.961179 1.643305 -0.961179 q 0.542601 0 0.945676 0.30489 q 0.403075 0.299722 0.552936 0.790647 q 0.589109 -1.095537 1.756993 -1.095537 q 1.746658 0 1.746658 2.154903 z"
   stroke-linecap="round"
   id="path30" />
</g>
<g
   transform="matrix(3.78 0 0 3.78 81.33 76.57)"
   id="path58353">
<path
   style="stroke: none; stroke-width: 0.264583; stroke-dasharray: none; stroke-linecap: butt; stroke-dashoffset: 0; stroke-linejoin: miter; stroke-miterlimit: 4; fill: rgb(0,0,0); fill-rule: nonzero; opacity: 1;"
   transform=" translate(-23.74, -100.2)"
   d="m 23.731376 97.430647 q -0.227376 0 -0.387572 -0.155029 q -0.160196 -0.155029 -0.160196 -0.392739 q 0 -0.237711 0.160196 -0.39274 q 0.160196 -0.160196 0.387572 -0.160196 q 0.232543 0 0.39274 0.160196 q 0.165364 0.155029 0.165364 0.39274 q 0 0.227375 -0.165364 0.387572 q -0.160197 0.160196 -0.39274 0.160196 z m 0.41341 6.635233 h -0.847491 v -5.29165 h 0.847491 z"
   stroke-linecap="round"
   id="path33" />
</g>
<g
   transform="matrix(3.78 0 0 3.78 97.66 80.96)"
   id="path58355">
<path
   style="stroke: none; stroke-width: 0.264583; stroke-dasharray: none; stroke-linecap: butt; stroke-dashoffset: 0; stroke-linejoin: miter; stroke-miterlimit: 4; fill: rgb(0,0,0); fill-rule: nonzero; opacity: 1;"
   transform=" translate(-28.06, -101.36)"
   d="M 30.252921 104.06588 H 29.40543 v -3.01789 q 0 -1.684651 -1.229895 -1.684651 q -0.635618 0 -1.054196 0.48059 q -0.41341 0.475421 -0.41341 1.204061 v 3.01789 h -0.847491 v -5.29165 h 0.847491 v 0.878497 h 0.02067 q 0.599445 -1.00252 1.736323 -1.00252 q 0.868161 0 1.32808 0.563271 q 0.459919 0.558104 0.459919 1.617472 z"
   stroke-linecap="round"
   id="path36" />
</g>
<g
   transform="matrix(3.78 0 0 3.78 113.66 76.57)"
   id="path58357">
<path
   style="stroke: none; stroke-width: 0.264583; stroke-dasharray: none; stroke-linecap: butt; stroke-dashoffset: 0; stroke-linejoin: miter; stroke-miterlimit: 4; fill: rgb(0,0,0); fill-rule: nonzero; opacity: 1;"
   transform=" translate(-32.29, -100.2)"
   d="m 32.283798 97.430647 q -0.227376 0 -0.387572 -0.155029 q -0.160197 -0.155029 -0.160197 -0.392739 q 0 -0.237711 0.160197 -0.39274 q 0.160196 -0.160196 0.387572 -0.160196 q 0.232543 0 0.392739 0.160196 q 0.165364 0.155029 0.165364 0.39274 q 0 0.227375 -0.165364 0.387572 q -0.160196 0.160196 -0.392739 0.160196 z m 0.41341 6.635233 h -0.847491 v -5.29165 h 0.847491 z"
   stroke-linecap="round"
   id="path39" />
</g>
<g
   transform="matrix(3.78 0 0 3.78 129.54 85.66)"
   id="path58359">
<path
   style="stroke: none; stroke-width: 0.264583; stroke-dasharray: none; stroke-linecap: butt; stroke-dashoffset: 0; stroke-linejoin: miter; stroke-miterlimit: 4; fill: rgb(0,0,0); fill-rule: nonzero; opacity: 1;"
   transform=" translate(-36.49, -102.6)"
   d="m 38.929366 103.64213 q 0 2.91455 -2.790519 2.91455 q -0.981849 0 -1.715652 -0.37207 v -0.84749 q 0.893999 0.49609 1.705317 0.49609 q 1.953363 0 1.953363 -2.07739 v -0.57877 h -0.02067 q -0.604612 1.01285 -1.819004 1.01285 q -0.987017 0 -1.591629 -0.70279 q -0.599445 -0.70797 -0.599445 -1.89652 q 0 -1.34875 0.645953 -2.144569 q 0.651121 -0.795814 1.777664 -0.795814 q 1.069699 0 1.586461 0.857826 h 0.02067 V 98.77423 h 0.847491 z m -0.847491 -1.96886 v -0.78031 q 0 -0.63045 -0.428913 -1.080037 q -0.423746 -0.449584 -1.059364 -0.449584 q -0.785479 0 -1.229895 0.573607 q -0.444416 0.568434 -0.444416 1.596794 q 0 0.88367 0.423746 1.41593 q 0.428913 0.5271 1.13171 0.5271 q 0.713132 0 1.157548 -0.50643 q 0.449584 -0.50642 0.449584 -1.29707 z"
   stroke-linecap="round"
   id="path42" />
</g>
<g
   transform="matrix(3.78 0 0 3.78 151.65 81.19)"
   id="path58361">
<path
   style="stroke: none; stroke-width: 0.264583; stroke-dasharray: none; stroke-linecap: butt; stroke-dashoffset: 0; stroke-linejoin: miter; stroke-miterlimit: 4; fill: rgb(0,0,0); fill-rule: nonzero; opacity: 1;"
   transform=" translate(-42.34, -101.42)"
   d="m 44.432889 104.06588 h -0.847491 v -0.82682 h -0.02067 q -0.552937 0.95084 -1.627803 0.95084 q -0.790647 0 -1.24023 -0.41857 q -0.444416 -0.41858 -0.444416 -1.11104 q 0 -1.48311 1.746658 -1.72599 l 1.586461 -0.22221 q 0 -1.348751 -1.090369 -1.348751 q -0.956011 0 -1.725988 0.651121 v -0.868161 q 0.780312 -0.496092 1.798335 -0.496092 q 1.865513 0 1.865513 1.974033 z m -0.847491 -2.67683 l -1.276404 0.1757 q -0.589109 0.0827 -0.888832 0.29455 q -0.299722 0.20671 -0.299722 0.73897 q 0 0.38758 0.273884 0.63562 q 0.279052 0.24288 0.738971 0.24288 q 0.63045 0 1.038693 -0.43925 q 0.41341 -0.44441 0.41341 -1.12137 z"
   stroke-linecap="round"
   id="path45" />
</g>
<g
   transform="matrix(3.78 0 0 3.78 179.79 80.96)"
   id="path58363">
<path
   style="stroke: none; stroke-width: 0.264583; stroke-dasharray: none; stroke-linecap: butt; stroke-dashoffset: 0; stroke-linejoin: miter; stroke-miterlimit: 4; fill: rgb(0,0,0); fill-rule: nonzero; opacity: 1;"
   transform=" translate(-49.79, -101.36)"
   d="m 53.543414 104.06588 h -0.847491 v -3.03856 q 0 -0.8785 -0.273884 -1.271241 q -0.268716 -0.39274 -0.909502 -0.39274 q -0.542601 0 -0.925005 0.496093 q -0.377237 0.496088 -0.377237 1.188558 v 3.01789 h -0.847491 v -3.14192 q 0 -1.560621 -1.204057 -1.560621 q -0.558104 0 -0.919838 0.470254 q -0.361733 0.465087 -0.361733 1.214397 v 3.01789 h -0.847491 v -5.29165 h 0.847491 v 0.837156 h 0.02067 q 0.563271 -0.961179 1.643305 -0.961179 q 0.542601 0 0.945676 0.30489 q 0.403075 0.299722 0.552936 0.790647 q 0.58911 -1.095537 1.756993 -1.095537 q 1.746658 0 1.746658 2.154903 z"
   stroke-linecap="round"
   id="path48" />
</g>
<g
   transform="matrix(3.78 0 0 3.78 207.4 81.19)"
   id="path58365">
<path
   style="stroke: none; stroke-width: 0.264583; stroke-dasharray: none; stroke-linecap: butt; stroke-dashoffset: 0; stroke-linejoin: miter; stroke-miterlimit: 4; fill: rgb(0,0,0); fill-rule: nonzero; opacity: 1;"
   transform=" translate(-57.09, -101.42)"
   d="M 59.398334 101.63193 H 55.66214 q 0.02067 0.88366 0.475421 1.36425 q 0.454751 0.48059 1.250566 0.48059 q 0.893999 0 1.643305 -0.58911 v 0.79582 q -0.697629 0.50642 -1.844842 0.50642 q -1.121375 0 -1.762161 -0.7183 q -0.640786 -0.72347 -0.640786 -2.03087 q 0 -1.23507 0.69763 -2.010211 q 0.702797 -0.780312 1.74149 -0.780312 q 1.038693 0 1.607132 0.671791 q 0.568439 0.671792 0.568439 1.865512 z m -0.868161 -0.7183 q -0.0052 -0.73381 -0.356567 -1.142048 q -0.346231 -0.408243 -0.966346 -0.408243 q -0.599445 0 -1.018022 0.428913 q -0.418578 0.428918 -0.516763 1.121378 z"
   stroke-linecap="round"
   id="path51" />
</g>
<g
   transform="matrix(3.78 0 0 3.78 226.38 81.19)"
   id="path58367">
<path
   style="stroke: none; stroke-width: 0.264583; stroke-dasharray: none; stroke-linecap: butt; stroke-dashoffset: 0; stroke-linejoin: miter; stroke-miterlimit: 4; fill: rgb(0,0,0); fill-rule: nonzero; opacity: 1;"
   transform=" translate(-62.11, -101.42)"
   d="m 60.359515 103.87468 v -0.9095 q 0.692462 0.51159 1.52445 0.51159 q 1.116207 0 1.116207 -0.74414 q 0 -0.21187 -0.09819 -0.35656 q -0.09302 -0.14987 -0.258381 -0.26355 q -0.160197 -0.11369 -0.382405 -0.20154 q -0.21704 -0.093 -0.470254 -0.1912 q -0.351398 -0.13953 -0.620115 -0.27905 q -0.263549 -0.1447 -0.444416 -0.3204 q -0.175699 -0.18086 -0.268716 -0.40824 q -0.08785 -0.22738 -0.08785 -0.53227 q 0 -0.372065 0.170532 -0.656284 q 0.170531 -0.289387 0.454751 -0.480589 q 0.284219 -0.19637 0.645953 -0.294555 q 0.366902 -0.09819 0.754474 -0.09819 q 0.687294 0 1.229895 0.237711 v 0.857826 q -0.583942 -0.382405 -1.343583 -0.382405 q -0.237711 0 -0.428913 0.05684 q -0.191202 0.05168 -0.330728 0.149862 q -0.134359 0.09818 -0.211873 0.23771 q -0.07235 0.134359 -0.07235 0.299724 q 0 0.2067 0.07235 0.34623 q 0.07751 0.13952 0.222208 0.24804 q 0.144694 0.10852 0.351399 0.19637 q 0.206705 0.0878 0.470254 0.19121 q 0.351398 0.13436 0.63045 0.27905 q 0.279052 0.13952 0.475422 0.32039 q 0.19637 0.1757 0.299722 0.40824 q 0.10852 0.23255 0.10852 0.55294 q 0 0.39274 -0.175699 0.68213 q -0.170532 0.28938 -0.459919 0.48059 q -0.289387 0.1912 -0.666624 0.28422 q -0.377236 0.093 -0.790647 0.093 q -0.816485 0 -1.415929 -0.31522 z"
   stroke-linecap="round"
   id="path54" />
</g>
<g
   transform="matrix(2.23 0 0 2.7 141.98 59)"
   id="g59">
<path
   style="stroke: rgb(0,0,0); stroke-width: 6; stroke-dasharray: none; stroke-linecap: butt; stroke-dashoffset: 0; stroke-linejoin: miter; stroke-miterlimit: 4; fill: none; fill-rule: nonzero; opacity: 1;"
   vector-effect="non-scaling-stroke"
   transform=" translate(-62.2, -20.73)"
   d="m 20.013628 0 l 84.37401 0 l 0 0 c 11.053215 -1.04756605e-14 20.013626 9.282301 20.013626 20.7326 c 0 11.450296 -8.960411 20.7326 -20.013626 20.7326 l -84.37401 0 l 0 0 c -11.053222 0 -20.013628 -9.282303 -20.013628 -20.7326 c -5.2380687e-15 -11.450298 8.960406 -20.7326 20.013628 -20.7326 z"
   stroke-linecap="round"
   id="path57" />
</g>
</svg>
